<svg id="Layer_1" data-name="Layer 1" xmlns="http://www.w3.org/2000/svg" viewBox="0 0 899.81 899.62"><defs><style>.cls-1{fill:#009fe3;}</style></defs><path class="cls-1" d="M441.15,930.08c1.18,1.18,2.41,2.29,3.67,3.32a100.24,100.24,0,0,1-27.52-27.17Z" transform="translate(-50.19 -50.38)"/><path class="cls-1" d="M582.7,906.23a100.24,100.24,0,0,1-27.52,27.17C557.07,932.19,580.41,908.4,582.7,906.23Z" transform="translate(-50.19 -50.38)"/><path class="cls-1" d="M950,493.7a50,50,0,0,1-50,50H600V747.51L700.27,647.24A50,50,0,0,1,771,718L582.7,906.23C557.83,933.12,539.2,949.74,500,950c-39.22-.3-57.77-16.82-82.7-43.77L229,718a50,50,0,1,1,70.71-70.71L400,747.51V543.7c-66-1.69-65.92-98.33,0-100-66-1.69-65.92-98.33,0-100H100c-43.53,1.52-66.69-56.18-35.35-85.36A49.88,49.88,0,0,1,100,243.7H400V150C396.94,62.91,512.36,16.64,570.71,79.29c41.41,33.08,27,118.2,29.29,164.41,66,1.69,65.91,98.32,0,100,66,1.69,65.91,98.32,0,100H900A50,50,0,0,1,950,493.7Z" transform="translate(-50.19 -50.38)"/><path class="cls-1" d="M555.18,933.4a49.55,49.55,0,0,1-17.78,9.36A98.14,98.14,0,0,0,555.18,933.4Z" transform="translate(-50.19 -50.38)"/><path class="cls-1" d="M462.6,942.76a49.55,49.55,0,0,1-17.78-9.36A98.14,98.14,0,0,0,462.6,942.76Z" transform="translate(-50.19 -50.38)"/></svg>