<?xml version="1.0" encoding="UTF-8" standalone="no"?>
<svg
   viewBox="0 0 1024 1024"
   width="1024"
   height="1024"
   version="1.1"
   id="svg7"
   sodipodi:docname="new_logo.svg"
   inkscape:version="1.4.3 (0d15f75042, 2025-12-25)"
   xmlns:inkscape="http://www.inkscape.org/namespaces/inkscape"
   xmlns:sodipodi="http://sodipodi.sourceforge.net/DTD/sodipodi-0.dtd"
   xmlns="http://www.w3.org/2000/svg"
   xmlns:svg="http://www.w3.org/2000/svg">
  <sodipodi:namedview
     id="namedview7"
     pagecolor="#505050"
     bordercolor="#ffffff"
     borderopacity="1"
     inkscape:showpageshadow="0"
     inkscape:pageopacity="0"
     inkscape:pagecheckerboard="1"
     inkscape:deskcolor="#505050"
     showguides="true"
     inkscape:zoom="0.42536892"
     inkscape:cx="374.96863"
     inkscape:cy="600.65507"
     inkscape:window-width="1536"
     inkscape:window-height="891"
     inkscape:window-x="0"
     inkscape:window-y="0"
     inkscape:window-maximized="1"
     inkscape:current-layer="layer2" />
  <defs
     id="defs2">
    <inkscape:path-effect
       effect="bspline"
       id="path-effect8"
       is_visible="true"
       lpeversion="1.3"
       weight="33.333333"
       steps="2"
       helper_size="0"
       apply_no_weight="true"
       apply_with_weight="true"
       only_selected="false"
       uniform="false" />
    <linearGradient
       id="189871418809372729"
       x1="512"
       y1="112"
       x2="512"
       y2="912"
       gradientTransform="matrix(0.01,0,0,0.00125,-4.62,-0.14)">
      <stop
         stop-color="#6672ff"
         id="stop1" />
      <stop
         offset="0.809384"
         stop-color="#80defe"
         id="stop2" />
    </linearGradient>
    <inkscape:path-effect
       effect="bspline"
       id="path-effect8-3"
       is_visible="true"
       lpeversion="1.3"
       weight="33.333333"
       steps="2"
       helper_size="0"
       apply_no_weight="true"
       apply_with_weight="true"
       only_selected="false"
       uniform="false" />
  </defs>
  <g
     inkscape:groupmode="layer"
     id="layer2"
     inkscape:label="New Logo">
    <path
       d="m 512.07617,61.429687 a 70.725502,70.725502 0 0 0 -70.72461,70.726563 c 0,247.68831 -9.2e-4,495.37704 -21.55664,582.71289 -21.55571,87.33585 -64.66482,14.32179 -107.77539,-58.69336 6.26208,53.0671 12.52406,106.13451 -25.74414,69.01563 C 248.19421,688.25393 165.96532,561.90261 83.574219,435.22461 A 437.19482,679.065 0 0 0 512,986.39062 437.19482,679.065 0 0 0 940.42578,435.22461 c -82.3911,126.678 -164.61999,253.02932 -202.70117,289.9668 -38.2682,37.11888 -32.00622,-15.94853 -25.74414,-69.01563 C 668.8699,729.19093 625.76079,802.20499 604.20508,714.86914 582.78395,628.07857 582.64927,382.9306 582.64844,136.79492 a 70.725502,70.725502 0 0 0 0.15234,-4.63867 70.725502,70.725502 0 0 0 -70.72461,-70.726563 z"
       style="fill:#ffbe09;fill-opacity:1;stroke-width:0;stroke-linecap:round;paint-order:markers stroke fill"
       id="path10" />
  </g>
</svg>
